<svg width="19" height="22" viewBox="0 0 19 22" fill="none" xmlns="http://www.w3.org/2000/svg">
<path d="M9.25 20.75C5.243 20.75 3.24 20.75 1.995 19.432C0.75 18.114 0.75 15.992 0.75 11.75C0.75 7.508 0.75 5.386 1.995 4.068C3.24 2.75 5.243 2.75 9.25 2.75C13.257 2.75 15.26 2.75 16.505 4.068C17.75 5.386 17.75 7.508 17.75 11.75C17.75 15.992 17.75 18.114 16.505 19.432C15.26 20.75 13.257 20.75 9.25 20.75Z" stroke="white" stroke-width="1.5" stroke-linecap="round" stroke-linejoin="round"/>
<path d="M5.25 2.75V0.75M13.25 2.75V0.75" stroke="white" stroke-width="1.5" stroke-linecap="round"/>
<path d="M11.2678 8.24219C11.2678 8.77262 11.0571 9.28133 10.682 9.6564C10.307 10.0315 9.79826 10.2422 9.26783 10.2422C8.73739 10.2422 8.22869 10.0315 7.85361 9.6564C7.47854 9.28133 7.26783 8.77262 7.26783 8.24219C7.26783 7.71175 7.47854 7.20305 7.85361 6.82797C8.22869 6.4529 8.73739 6.24219 9.26783 6.24219C9.79826 6.24219 10.307 6.4529 10.682 6.82797C11.0571 7.20305 11.2678 7.71175 11.2678 8.24219ZM5.31283 15.4652C6.37083 13.8352 8.05183 13.2252 9.26783 13.2262C10.4838 13.2272 12.1158 13.8362 13.1738 15.4662C13.2418 15.5712 13.2608 15.7002 13.1988 15.8102C12.9518 16.2492 12.1828 17.1202 11.6288 17.1792C10.9908 17.2462 9.32183 17.2562 9.26883 17.2562C9.21583 17.2562 7.49683 17.2462 6.85883 17.1792C6.30283 17.1192 5.53483 16.2492 5.28683 15.8092C5.22583 15.7002 5.24483 15.5712 5.31283 15.4652Z" stroke="white" stroke-width="1.5" stroke-linecap="round" stroke-linejoin="round"/>
</svg>
