<svg width="52" height="52" viewBox="0 0 52 52" fill="none" xmlns="http://www.w3.org/2000/svg">
<g clip-path="url(#clip0_2613_1178)">
<path d="M7.46645 0.828125H0.828125V7.46645H7.46645V0.828125Z" fill="black"/>
<path d="M51.1696 0.828125H44.5312V7.46645H51.1696V0.828125Z" fill="black"/>
<path d="M7.46645 44.5312H0.828125V51.1696H7.46645V44.5312Z" fill="black"/>
<path d="M51.1696 44.5312H44.5312V51.1696H51.1696V44.5312Z" fill="black"/>
<path d="M47.8511 12.724C48.3093 12.724 48.6808 12.3525 48.6808 11.8942V8.29786H51.1702C51.6285 8.29786 52 7.92645 52 7.46809V0.829766C52 0.371414 51.6285 0 51.1702 0H44.5319C44.0737 0 43.7021 0.371414 43.7021 0.829766V3.31916H8.29786V0.829766C8.29786 0.371414 7.92634 0 7.46809 0H0.829766C0.371516 0 0 0.371414 0 0.829766V7.46809C0 7.92645 0.371516 8.29786 0.829766 8.29786H3.31916V43.7021H0.829766C0.371516 43.7021 0 44.0736 0 44.5319V51.1702C0 51.6286 0.371516 52 0.829766 52H7.46809C7.92634 52 8.29786 51.6286 8.29786 51.1702V48.6808H43.7021V51.1702C43.7021 51.6286 44.0737 52 44.5319 52H51.1702C51.6285 52 52 51.6286 52 51.1702V44.5319C52 44.0736 51.6285 43.7021 51.1702 43.7021H48.6808V15.2134C48.6808 14.755 48.3093 14.3836 47.8511 14.3836C47.3928 14.3836 47.0213 14.755 47.0213 15.2134V43.7021H44.5319C44.0737 43.7021 43.7021 44.0736 43.7021 44.5319V47.0213H8.29786V44.5319C8.29786 44.0736 7.92634 43.7021 7.46809 43.7021H4.9787V8.29786H7.46809C7.92634 8.29786 8.29786 7.92645 8.29786 7.46809V4.9787H43.7021V7.46809C43.7021 7.92645 44.0737 8.29786 44.5319 8.29786H47.0213V11.8942C47.0213 12.3524 47.3928 12.724 47.8511 12.724ZM45.3617 45.3617H50.3404V50.3404H45.3617V45.3617ZM6.63833 50.3405H1.65953V45.3618H6.63823L6.63833 50.3405ZM6.63833 6.63833H1.65953V1.65953H6.63823L6.63833 6.63833ZM45.3617 1.65953H50.3404V6.63823H45.3617V1.65953Z" fill="#D3D3D3"/>
<path d="M24.3392 39.2773H11.8923C11.434 39.2773 11.0625 39.6488 11.0625 40.1071C11.0625 40.5655 11.434 40.9369 11.8923 40.9369H24.3392C24.7974 40.9369 25.1689 40.5655 25.1689 40.1071C25.1689 39.6488 24.7974 39.2773 24.3392 39.2773Z" fill="#D3D3D3"/>
<path d="M40.1048 39.2773H27.6579C27.1996 39.2773 26.8281 39.6488 26.8281 40.1071C26.8281 40.5655 27.1996 40.9369 27.6579 40.9369H40.1047C40.5629 40.9369 40.9344 40.5655 40.9344 40.1071C40.9345 39.6488 40.563 39.2773 40.1048 39.2773Z" fill="#D3D3D3"/>
<path d="M24.3392 35.75H11.8923C11.434 35.75 11.0625 36.1214 11.0625 36.5798C11.0625 37.0381 11.434 37.4095 11.8923 37.4095H24.3392C24.7974 37.4095 25.1689 37.0381 25.1689 36.5798C25.1689 36.1214 24.7974 35.75 24.3392 35.75Z" fill="#D3D3D3"/>
<path d="M40.1048 35.75H27.6579C27.1996 35.75 26.8281 36.1214 26.8281 36.5798C26.8281 37.0381 27.1996 37.4095 27.6579 37.4095H40.1047C40.5629 37.4095 40.9344 37.0381 40.9344 36.5798C40.9345 36.1214 40.563 35.75 40.1048 35.75Z" fill="#D3D3D3"/>
<path d="M24.3392 32.2227H11.8923C11.434 32.2227 11.0625 32.5941 11.0625 33.0524C11.0625 33.5108 11.434 33.8822 11.8923 33.8822H24.3392C24.7974 33.8822 25.1689 33.5108 25.1689 33.0524C25.1689 32.5941 24.7974 32.2227 24.3392 32.2227Z" fill="#D3D3D3"/>
<path d="M40.1048 32.2227H27.6579C27.1996 32.2227 26.8281 32.5941 26.8281 33.0524C26.8281 33.5108 27.1996 33.8822 27.6579 33.8822H40.1047C40.5629 33.8822 40.9344 33.5108 40.9344 33.0524C40.9345 32.5941 40.563 32.2227 40.1048 32.2227Z" fill="#D3D3D3"/>
<path d="M40.1051 28.6953H11.8923C11.434 28.6953 11.0625 29.0667 11.0625 29.5251C11.0625 29.9834 11.434 30.3548 11.8923 30.3548H40.105C40.5633 30.3548 40.9348 29.9834 40.9348 29.5251C40.9349 29.0667 40.5634 28.6953 40.1051 28.6953Z" fill="#D3D3D3"/>
<path d="M40.8883 26.2725C40.8935 26.2574 40.8986 26.242 40.9031 26.2265C40.9066 26.214 40.9097 26.2015 40.9127 26.189C40.9159 26.1758 40.9188 26.1627 40.9213 26.1494C40.9241 26.1342 40.9263 26.1188 40.9283 26.1036C40.9297 26.0924 40.9311 26.0813 40.932 26.0699C40.9336 26.0525 40.9343 26.0353 40.9347 26.0179C40.9348 26.0113 40.9357 26.0047 40.9357 25.998V11.8923C40.9357 11.8856 40.9348 11.8791 40.9347 11.8724C40.9343 11.855 40.9336 11.8377 40.932 11.8204C40.931 11.809 40.9296 11.7978 40.9283 11.7866C40.9262 11.7714 40.9241 11.7561 40.9213 11.7408C40.9188 11.7274 40.9159 11.7143 40.9127 11.7012C40.9098 11.6887 40.9066 11.6762 40.9031 11.6637C40.8986 11.6481 40.8935 11.6329 40.8883 11.6177C40.8847 11.6078 40.8813 11.5978 40.8773 11.5879C40.8706 11.5708 40.8632 11.5543 40.8552 11.5378C40.8527 11.5323 40.8507 11.5266 40.8479 11.5213C40.8464 11.5183 40.8446 11.5156 40.8431 11.5126C40.8348 11.4967 40.8259 11.4812 40.8168 11.4659C40.8114 11.457 40.8061 11.4477 40.8005 11.4391C40.7923 11.4265 40.7833 11.4144 40.7745 11.4022C40.7669 11.3918 40.7594 11.3811 40.7511 11.3711C40.7435 11.3617 40.7353 11.3528 40.7274 11.3437C40.7173 11.3324 40.7074 11.3208 40.6967 11.31C40.6892 11.3024 40.6811 11.2953 40.6734 11.288C40.6618 11.277 40.6501 11.2659 40.6379 11.2558C40.629 11.2483 40.6195 11.2415 40.6103 11.2344C40.5987 11.2256 40.5872 11.2166 40.5752 11.2082C40.5633 11.2 40.5507 11.1926 40.5383 11.185C40.5284 11.179 40.5188 11.1726 40.5087 11.1671C40.4935 11.1586 40.4775 11.1511 40.4616 11.1435C40.4538 11.1398 40.4461 11.1357 40.4382 11.1323C40.4212 11.1249 40.4037 11.1185 40.3862 11.1122C40.3786 11.1094 40.3712 11.1063 40.3636 11.1038C40.3471 11.0985 40.3302 11.094 40.3132 11.0897C40.3037 11.0873 40.2943 11.0845 40.2848 11.0824C40.2701 11.0792 40.2553 11.0769 40.2405 11.0745C40.2278 11.0724 40.215 11.0702 40.2022 11.0686C40.19 11.0672 40.1776 11.0664 40.1652 11.0654C40.1494 11.0643 40.1334 11.0632 40.1175 11.063C40.1135 11.063 40.1097 11.0625 40.1056 11.0625H11.8931C11.8896 11.0625 11.8862 11.0629 11.8828 11.063C11.8655 11.0632 11.8483 11.0643 11.831 11.0656C11.82 11.0665 11.8088 11.0671 11.7978 11.0684C11.7838 11.07 11.7699 11.0725 11.756 11.0748C11.7422 11.0771 11.7284 11.0793 11.7148 11.0822C11.7044 11.0845 11.694 11.0875 11.6837 11.0901C11.6675 11.0943 11.6514 11.0986 11.6356 11.1036C11.6274 11.1063 11.6195 11.1096 11.6113 11.1125C11.5942 11.1187 11.5771 11.1249 11.5606 11.1322C11.5526 11.1356 11.5449 11.1397 11.5371 11.1434C11.5212 11.151 11.5052 11.1586 11.4899 11.1671C11.4801 11.1725 11.4709 11.1786 11.4613 11.1845C11.4485 11.1923 11.4356 11.1998 11.4232 11.2083C11.4118 11.2163 11.4007 11.225 11.3895 11.2335C11.3798 11.2409 11.3698 11.2482 11.3604 11.256C11.3487 11.2658 11.3376 11.2765 11.3263 11.287C11.3179 11.2947 11.3094 11.3022 11.3015 11.3103C11.2913 11.3207 11.2817 11.3317 11.2719 11.3427C11.2635 11.3523 11.255 11.3615 11.247 11.3714C11.2392 11.3811 11.2319 11.3914 11.2245 11.4014C11.2155 11.4138 11.2063 11.4262 11.1978 11.439C11.1923 11.4476 11.187 11.4565 11.1817 11.4653C11.1724 11.4806 11.1635 11.4963 11.1552 11.5122C11.1537 11.5152 11.1519 11.5179 11.1504 11.5209C11.1476 11.5262 11.1457 11.5319 11.143 11.5374C11.1352 11.5539 11.1278 11.5705 11.121 11.5875C11.1171 11.5974 11.1136 11.6073 11.11 11.6173C11.1047 11.6325 11.0997 11.6478 11.0952 11.6633C11.0915 11.6758 11.0886 11.6883 11.0856 11.7008C11.0824 11.714 11.0795 11.7271 11.077 11.7404C11.0742 11.7557 11.0719 11.771 11.07 11.7862C11.0686 11.7974 11.0672 11.8086 11.0662 11.82C11.0646 11.8373 11.0639 11.8546 11.0635 11.872C11.0634 11.8786 11.0625 11.8852 11.0625 11.8919V25.9976C11.0625 26.0043 11.0634 26.0108 11.0635 26.0175C11.0639 26.0348 11.0646 26.0521 11.0662 26.0695C11.0672 26.0809 11.0686 26.092 11.07 26.1032C11.072 26.1184 11.0742 26.1338 11.077 26.149C11.0795 26.1624 11.0824 26.1755 11.0856 26.1886C11.0885 26.2011 11.0916 26.2136 11.0952 26.2261C11.0997 26.2417 11.1047 26.257 11.11 26.2721C11.1136 26.282 11.117 26.292 11.121 26.302C11.1277 26.319 11.1351 26.3356 11.1429 26.3519C11.1456 26.3574 11.1475 26.3631 11.1502 26.3685C11.1514 26.3708 11.1529 26.3726 11.1541 26.3749C11.1706 26.407 11.1887 26.4381 11.2091 26.4677C11.2126 26.4728 11.2165 26.4775 11.2201 26.4825C11.2368 26.5056 11.2547 26.5276 11.2735 26.549C11.2806 26.5568 11.2874 26.5646 11.2946 26.5721C11.3172 26.5957 11.3408 26.6182 11.3662 26.639C11.3709 26.6429 11.3761 26.6464 11.3809 26.6501C11.4031 26.6676 11.4264 26.6838 11.4504 26.6991C11.4583 26.704 11.4662 26.7089 11.4742 26.7136C11.5011 26.7293 11.5287 26.7438 11.5573 26.7564C11.5596 26.7575 11.5618 26.7587 11.564 26.7597C11.5957 26.7733 11.6283 26.7847 11.6618 26.7943C11.6689 26.7965 11.6761 26.798 11.6832 26.7998C11.7091 26.8065 11.7356 26.8121 11.7624 26.8163C11.772 26.8178 11.7814 26.8195 11.7911 26.8207C11.8213 26.8244 11.8518 26.8267 11.883 26.827C11.8864 26.8271 11.8896 26.8277 11.8931 26.8277C11.8943 26.8277 11.8956 26.8275 11.8968 26.8275H40.1007C40.1021 26.8275 40.1033 26.8277 40.1045 26.8277C40.1079 26.8277 40.1111 26.827 40.1146 26.827C40.1456 26.8267 40.1763 26.8244 40.2065 26.8207C40.2161 26.8195 40.2256 26.8179 40.2351 26.8165C40.262 26.8123 40.2884 26.8067 40.3143 26.8C40.3214 26.7981 40.3286 26.7966 40.3357 26.7946C40.3692 26.7849 40.402 26.7736 40.4336 26.7599C40.4357 26.759 40.4376 26.7579 40.4398 26.757C40.4685 26.7443 40.4963 26.7296 40.5232 26.7139C40.5312 26.7092 40.5391 26.7043 40.5469 26.6995C40.571 26.6842 40.5943 26.668 40.6167 26.6503C40.6215 26.6466 40.6265 26.6433 40.6312 26.6394C40.6565 26.6186 40.6803 26.5961 40.7029 26.5724C40.7101 26.565 40.7168 26.5572 40.7238 26.5494C40.7427 26.5281 40.7607 26.506 40.7774 26.4828C40.7809 26.4779 40.7849 26.4733 40.7883 26.4682C40.8086 26.4387 40.8268 26.4076 40.8433 26.3754C40.8444 26.373 40.8459 26.3712 40.8471 26.369C40.8499 26.3636 40.8518 26.3579 40.8544 26.3524C40.8622 26.3361 40.8697 26.3194 40.8764 26.3025C40.8814 26.2925 40.8848 26.2826 40.8883 26.2725ZM12.723 13.2348L24.1442 18.9451L12.723 24.6553V13.2348ZM15.4083 12.722H36.5907L25.9996 18.0174L15.4083 12.722ZM25.9996 19.8728L36.5909 25.1682H15.4083L25.9996 19.8728ZM27.8551 18.9451L39.2763 13.2348V24.6554L27.8551 18.9451Z" fill="#D3D3D3"/>
</g>
<defs>
<clipPath id="clip0_2613_1178">
<rect width="52" height="52" fill="white"/>
</clipPath>
</defs>
</svg>
