<svg width="43" height="43" viewBox="0 0 43 43" fill="none" xmlns="http://www.w3.org/2000/svg">
<g clip-path="url(#clip0_2613_1155)">
<path d="M10.5562 20.2891L14.3175 26.1021C14.1968 26.0957 14.0761 26.0926 13.9544 26.0926C10.3529 26.0926 7.31245 28.4861 6.33319 31.769C6.19663 31.7584 6.05898 31.751 5.92032 31.751C5.90235 31.751 5.88429 31.751 5.86632 31.7521L2.02344 25.8121L10.5562 20.2891Z" fill="black"/>
<path d="M16.4528 6.19531L20.7297 11.0873C21.132 11.5478 21.3543 12.2095 21.3543 12.8383C21.3543 13.1379 21.3035 13.4312 21.1976 13.6916C21.025 14.113 20.9933 14.6401 21.1076 15.1568L21.4412 16.6569L18.2621 17.3641L16.366 17.7854L16.0325 16.2843C15.9754 16.026 15.8833 15.7815 15.7647 15.5623C15.6451 15.3442 15.499 15.1505 15.3317 14.9959C14.6933 14.4062 14.4011 13.3074 14.652 12.4382L16.4528 6.19531Z" fill="black"/>
<path d="M41.5487 16.3592L42.204 18.8957H42.2029C41.1252 18.9719 40.0549 18.8237 39.0566 18.4722C38.0573 18.1219 37.1299 17.5681 36.3359 16.8345L38.4331 15.2656C38.774 15.7229 39.2472 16.084 39.8242 16.2861C40.4011 16.4894 40.9982 16.502 41.5476 16.3592H41.5487Z" fill="black"/>
<path d="M40.8071 13.4883L41.5492 16.3583H41.5481C40.9987 16.5012 40.4016 16.4885 39.8246 16.2852C39.2477 16.083 38.7745 15.722 38.4336 15.2647L40.8071 13.4883Z" fill="#050505"/>
<path d="M31.6915 14.2465L31.374 16.9768L31.3623 16.9758L27.8359 16.6698L27.9937 13.9258L31.6915 14.2465Z" fill="black"/>
<path d="M31.3771 16.9789L30.8394 21.6115C29.8506 21.0642 28.7677 20.6683 27.6211 20.4523L27.8392 16.6719L31.3655 16.9778L31.3771 16.9789Z" fill="#050505"/>
<path d="M21.8452 18.6562L22.3142 20.7629C20.5399 21.3229 18.9625 22.3254 17.7133 23.6424L16.8516 19.7657L21.8452 18.6562Z" fill="#050505"/>
<path d="M42.2066 18.8922L37.61 31.9824C37.2353 31.8649 36.8436 31.7897 36.4381 31.7612C36.4497 31.5505 36.4582 31.3398 36.4582 31.127C36.4582 29.882 36.2486 28.6857 35.8633 27.5721L39.0593 18.4698V18.4688C40.0576 18.8202 41.1279 18.9685 42.2056 18.8922H42.2066Z" fill="black"/>
<path d="M39.0591 18.4696V18.4707L35.8631 27.573C35.4079 26.255 34.706 25.0524 33.8125 24.0202L36.3373 16.832H36.3384C37.1323 17.5656 38.0597 18.1193 39.0591 18.4696Z" fill="black"/>
<path d="M22.7723 17.4009C22.7892 17.475 22.7966 17.5492 22.7966 17.6221C22.7966 18.0901 22.4737 18.5125 21.9973 18.6173L16.8513 19.7616L16.6988 19.7955C16.1483 19.9173 15.6042 19.5711 15.4814 19.0206C15.4644 18.9465 15.457 18.8723 15.457 18.7994C15.457 18.3314 15.78 17.909 16.2563 17.8031L16.3675 17.7788L18.2635 17.3574L21.4426 16.6503L21.5548 16.6259C22.1042 16.5042 22.6495 16.8504 22.7723 17.4009Z" fill="black"/>
<path d="M30.4396 1C30.4396 1 37.8215 6.26037 31.6941 14.2457L27.9963 13.925L27.5009 12.9595C26.4634 10.9386 27.1388 8.46127 29.0571 7.24601C30.3582 6.42238 31.0992 5.00589 31.0992 3.5365C31.0992 3.01672 31.006 2.48947 30.8123 1.97926L30.4396 1Z" fill="black"/>
<path d="M37.6084 31.9861C39.6886 32.6383 41.1983 34.5798 41.1983 36.875C41.1983 39.7057 38.9041 42.0009 36.0734 42.0009C34.3891 42.0009 7.28254 42.0009 5.91787 42.0009C3.08709 42.0009 0.792969 39.7057 0.792969 36.875C0.792969 34.0632 3.05744 31.7797 5.86387 31.7511C5.88184 31.75 5.8999 31.75 5.91787 31.75C6.05653 31.75 6.19418 31.7574 6.33074 31.768C7.31 28.4851 10.3504 26.0916 13.9519 26.0916C14.0737 26.0916 14.1944 26.0948 14.3151 26.1011C14.838 26.1243 15.3483 26.1995 15.8406 26.3192C16.3286 25.3336 16.9606 24.4326 17.7112 23.644C18.9603 22.3271 20.5377 21.3245 22.312 20.7645C23.3453 20.4374 24.4452 20.2617 25.5864 20.2617C26.2808 20.2617 26.9594 20.3263 27.6179 20.4523C28.7644 20.6682 29.8474 21.0642 30.8362 21.6115C31.9658 22.235 32.9725 23.0545 33.811 24.0231C34.7045 25.0553 35.4064 26.258 35.8616 27.5759C36.2469 28.6897 36.4565 29.8859 36.4565 31.1308C36.4565 31.3436 36.448 31.5543 36.4363 31.765C36.842 31.7935 37.2337 31.8686 37.6084 31.9861Z" fill="black"/>
<path d="M42.9748 18.6955L41.5774 13.2889C41.5111 13.0325 41.3215 12.8261 41.0718 12.7385C40.8221 12.6509 40.545 12.6934 40.333 12.852L35.8616 16.1971C35.7353 16.2915 35.6401 16.4212 35.5879 16.5698L33.4857 22.5556C32.9323 22.0454 32.3296 21.5879 31.6855 21.1913L32.4567 14.552C34.4133 11.9334 35.2109 9.30422 34.8263 6.73388C34.2329 2.77048 31.0355 0.451245 30.8997 0.35441C30.6149 0.151504 30.2307 0.158642 29.9537 0.372551C29.6767 0.586376 29.5724 0.95616 29.6966 1.2832L30.0688 2.2622C30.6731 3.85228 30.0685 5.66694 28.6314 6.57691C26.3506 8.02119 25.5603 10.9213 26.7931 13.3231L27.1898 14.0961L26.8764 19.538C26.4533 19.4913 26.0237 19.4665 25.5883 19.4665C24.6792 19.4665 23.7805 19.5733 22.9075 19.7789L22.7664 19.1446C22.9804 19.0052 23.165 18.8219 23.3062 18.6001C23.5663 18.1912 23.6516 17.7055 23.5465 17.2326C23.4415 16.7595 23.1584 16.3557 22.7496 16.0956C22.5405 15.9626 22.3113 15.8758 22.074 15.8364L21.8842 14.9821C21.8046 14.6236 21.8225 14.2619 21.9337 13.9898C22.3745 12.9093 22.1202 11.4681 21.3286 10.5626L17.0521 5.67013C16.8611 5.45152 16.5654 5.35468 16.2822 5.41767C15.9986 5.48066 15.7721 5.69356 15.6916 5.97264L13.8901 12.2161C13.5569 13.3715 13.9368 14.7848 14.7939 15.5768C15.0097 15.7762 15.1792 16.0962 15.2589 16.4548L15.4488 17.3092C15.2506 17.4456 15.0797 17.6211 14.9466 17.8301C14.6865 18.2389 14.6011 18.7246 14.7062 19.1975C14.8112 19.6706 15.0943 20.0744 15.5031 20.3346C15.7253 20.4759 15.97 20.5655 16.223 20.6012L16.8476 23.4106C16.3034 24.0267 15.8235 24.6999 15.4184 25.4205C15.2026 25.3839 14.9857 25.3567 14.7683 25.3363L11.2217 19.8553C11.1072 19.6785 10.9272 19.5543 10.7214 19.5103C10.5157 19.466 10.3005 19.5057 10.1237 19.62L1.591 25.1427C1.2229 25.3809 1.11758 25.8725 1.35576 26.2406L4.51585 31.1247C1.92728 31.7567 0 34.0939 0 36.874C0 40.1378 2.65525 42.7931 5.91906 42.7931H36.0747C39.3385 42.7931 41.9938 40.1378 41.9938 36.874C41.9938 34.537 40.6143 32.4867 38.6105 31.53L42.9552 19.1573C43.0074 19.0087 43.0142 18.8481 42.9748 18.6955ZM36.7003 27.5849L39.5585 19.4451C40.0583 19.5707 40.5696 19.6513 41.0865 19.686L37.2404 30.6387C37.1962 29.5787 37.0103 28.5544 36.7003 27.5849ZM37.6329 16.8552L38.3426 16.3244C38.6982 16.634 39.1103 16.8754 39.5633 17.0346C39.9671 17.1763 40.3866 17.2476 40.8071 17.2476C40.8578 17.2476 40.9086 17.2448 40.9593 17.2427L41.1812 18.1014C39.9097 18.0145 38.6793 17.5824 37.6329 16.8552ZM40.3365 14.8329L40.5458 15.6429C40.3914 15.6239 40.2385 15.5887 40.0893 15.5363C39.9401 15.4839 39.7987 15.4159 39.6664 15.3342L40.3365 14.8329ZM36.7151 18.1525C37.1406 18.4489 37.5912 18.7048 38.0601 18.9194L35.7688 25.445C35.4575 24.8898 35.1024 24.3624 34.7078 23.8679L36.7151 18.1525ZM28.7407 14.7876L30.8097 14.967L30.6758 16.1196L28.6739 15.9458L28.7407 14.7876ZM29.481 7.91856C30.9736 6.9734 31.8432 5.35132 31.8871 3.66113C32.4926 4.52349 33.0569 5.64065 33.2557 6.96912C33.5665 9.04647 32.9149 11.214 31.3201 13.4174L28.5011 13.1729L28.206 12.598C27.3507 10.932 27.8988 8.92041 29.481 7.91856ZM28.5825 17.5318L30.4925 17.6976L30.1777 20.4082C29.6227 20.1697 29.0458 19.9729 28.4506 19.8222L28.5825 17.5318ZM18.1867 22.1171L17.7979 20.3686L21.2415 19.6032L21.3853 20.2498C20.6792 20.5227 19.9979 20.8634 19.3523 21.2729C18.9455 21.531 18.5563 21.8132 18.1867 22.1171ZM16.6783 18.9904C16.6758 18.9909 16.6734 18.9919 16.6707 18.9925L16.5261 19.0247C16.4502 19.0413 16.3915 19.0177 16.3555 18.9947C16.3194 18.9717 16.273 18.9285 16.2562 18.8528C16.2394 18.7773 16.2632 18.7185 16.2862 18.6824C16.3092 18.6464 16.3524 18.5999 16.428 18.583L16.5396 18.5582L21.7266 17.4054C21.7444 17.4014 21.7612 17.3997 21.7771 17.3997C21.8287 17.3997 21.8695 17.4177 21.8971 17.4354C21.9332 17.4582 21.9796 17.5015 21.9964 17.5772C22.0132 17.6528 21.9894 17.7117 21.9664 17.7476C21.9436 17.7837 21.9002 17.8302 21.8246 17.847L16.6783 18.9904ZM15.4155 12.6561L16.3542 9.40257L16.9173 11.936C16.9996 12.3062 17.3277 12.5579 17.6916 12.5579C17.7486 12.5579 17.8066 12.5517 17.8646 12.5388C18.2928 12.4436 18.5626 12.0195 18.4674 11.5915L17.9042 9.05815L20.1327 11.6076C20.5302 12.0624 20.6783 12.8619 20.4629 13.3897C20.2293 13.9623 20.1833 14.6502 20.3337 15.3264L20.4949 16.0521L16.9698 16.8356L16.8085 16.1099C16.6582 15.4336 16.3253 14.8299 15.8711 14.4101C15.4526 14.0234 15.2481 13.2365 15.4155 12.6561ZM10.3195 21.3843L12.8918 25.3597C11.3632 25.5431 9.92386 26.1231 8.68005 27.0645C7.51099 27.9492 6.57666 29.1292 5.97575 30.4585L3.11986 26.0444L10.3195 21.3843ZM40.4059 36.874C40.4059 39.2622 38.4628 41.2051 36.0748 41.2051H5.91906C3.53096 41.2051 1.58798 39.2622 1.58798 36.874C1.58798 34.4858 3.53105 32.5429 5.91906 32.5429C6.02396 32.5429 6.13818 32.548 6.26852 32.5584C6.64351 32.5882 6.98533 32.3528 7.09233 31.994C7.99029 28.9857 10.8116 26.8845 13.9532 26.8845C14.5234 26.8845 15.0957 26.9535 15.6538 27.0895C16.0149 27.1772 16.3886 27.0032 16.5534 26.6701C18.2669 23.2064 21.7288 21.0547 25.5882 21.0547C31.1438 21.0547 35.6635 25.5745 35.6635 31.13C35.6635 31.3084 35.6575 31.5008 35.6451 31.7179C35.6204 32.1518 35.9487 32.5249 36.3823 32.5553C38.6384 32.7132 40.4059 34.6103 40.4059 36.874Z" fill="#D3D3D3"/>
<path d="M24.6565 31.9879C24.6543 31.9879 24.6521 31.9879 24.6498 31.9879C23.3967 30.2036 21.3869 29.1523 19.1828 29.1523C15.4958 29.1523 12.4961 32.152 12.4961 35.839C12.4961 36.2775 12.8515 36.633 13.2901 36.633C13.7287 36.633 14.0841 36.2775 14.0841 35.839C14.0841 33.0276 16.3713 30.7402 19.1829 30.7402C20.9868 30.7402 22.6207 31.6643 23.5532 33.2121C23.7106 33.4733 24.0034 33.6212 24.3075 33.5928C24.4277 33.5815 24.5451 33.5757 24.6565 33.5757C26.6862 33.5757 28.3375 35.227 28.3375 37.2568C28.3375 37.6952 28.6929 38.0508 29.1315 38.0508C29.5701 38.0508 29.9255 37.6952 29.9255 37.2568C29.9255 34.3516 27.5619 31.9879 24.6565 31.9879Z" fill="#D3D3D3"/>
</g>
<defs>
<clipPath id="clip0_2613_1155">
<rect width="43" height="43" fill="white"/>
</clipPath>
</defs>
</svg>
