<svg width="49" height="49" viewBox="0 0 49 49" fill="none" xmlns="http://www.w3.org/2000/svg">
<g clip-path="url(#clip0_2613_1196)">
<path d="M7.31641 26.9531L11.0752 40.4851C11.2721 41.1935 11.917 41.6837 12.6522 41.6837H17.1368L13.2648 27.7451L7.31641 26.9531Z" fill="#707487"/>
<path d="M2.40625 17.1328C1.50233 17.1328 0.769531 17.8655 0.769531 18.7695V23.6798C0.769531 24.5837 1.50243 25.3165 2.40625 25.3165H4.86132V17.1328H2.40625Z" fill="#7F8499"/>
<path d="M34.3207 7.3125H31.8656C30.9616 7.3125 30.2288 8.0452 30.2288 8.94921V9.3327C27.4666 10.5896 17.9767 14.6027 6.29885 16.1398C5.47877 16.2477 4.85938 16.9362 4.85938 17.7634V24.6861C4.85938 25.5132 5.47886 26.2017 6.29885 26.3097C17.9767 27.8468 27.4666 31.86 30.2288 33.1167V33.5002C30.2288 34.4041 30.9617 35.1369 31.8656 35.1369H34.3206C35.2245 35.1369 35.9573 34.404 35.9573 33.5002V8.94931C35.9574 8.0452 35.2246 7.3125 34.3207 7.3125Z" fill="black"/>
<path d="M27.7738 22.461C27.7738 23.458 26.8943 24.2231 25.9073 24.0814C21.6655 23.4723 14.8833 22.6031 6.29885 22.2043C5.47877 22.1661 4.85938 21.9232 4.85938 21.6312V24.6892C4.85938 25.5161 5.4781 26.2048 6.29789 26.3126C16.2822 27.6266 24.648 30.7441 28.5948 32.4076C28.6949 32.4497 29.9897 33.0111 30.229 33.12V9.33594C29.6739 9.5885 28.8357 9.95571 27.774 10.3885V22.461L27.7738 22.461Z" fill="black"/>
<path d="M11.345 31.1402C11.198 30.5165 11.7496 29.9536 12.3776 30.0814C12.9338 30.1945 13.4743 30.3156 14.0128 30.4373L13.2649 27.7451L7.31641 26.9531L11.0752 40.4851C11.2721 41.1935 11.917 41.6838 12.6522 41.6838H13.8613L11.345 31.1402Z" fill="#5B5D6E"/>
<path d="M34.3205 6.54688H31.8653C30.7097 6.54688 29.7422 7.36657 29.513 8.455C27.6283 9.39797 18.3784 13.7776 6.1984 15.3808C5.51441 15.4708 4.92708 15.8425 4.54733 16.3673H2.40397C1.07838 16.3674 0 17.4457 0 18.7713V23.6816C0 25.0071 1.07838 26.0855 2.40397 26.0855H4.54753C4.92718 26.6103 5.51461 26.9821 6.1985 27.072C6.3209 27.0882 6.44245 27.1052 6.56437 27.1219L10.3339 40.6924C10.6219 41.729 11.5743 42.453 12.6502 42.453H17.1319C17.1328 42.453 17.1335 42.4532 17.1344 42.4532C17.1355 42.4532 17.1363 42.453 17.1374 42.453H17.9531C18.3768 42.453 18.7204 42.1095 18.7204 41.6857C18.7204 41.262 18.3769 40.9185 17.9531 40.9185H17.718L14.2946 28.5949C22.344 30.5563 28.0743 33.278 29.5131 33.9978C29.7422 35.0862 30.7098 35.9059 31.8654 35.9059H34.3205C35.6461 35.9059 36.7244 34.8275 36.7244 33.5019V8.95084C36.7244 7.62526 35.6461 6.54688 34.3205 6.54688ZM1.53441 23.6816V18.7713C1.53441 18.2919 1.92449 17.9018 2.40397 17.9018H4.09188V24.551H2.40397C1.92449 24.551 1.53441 24.161 1.53441 23.6816ZM16.1253 40.9185H12.6502C12.2611 40.9185 11.9167 40.6566 11.8125 40.2817L8.22521 27.3683C9.73578 27.6103 11.1944 27.8918 12.5922 28.2L16.1253 40.9185ZM35.1899 33.502C35.1899 33.9815 34.7999 34.3716 34.3204 34.3716H31.8653C31.3858 34.3716 30.9958 33.9815 30.9958 33.502V33.5011C30.9958 33.4994 30.9958 33.4976 30.9958 33.4958V15.4981C30.9958 15.0744 30.6523 14.7308 30.2285 14.7308C29.8048 14.7308 29.4613 15.0743 29.4613 15.4981V32.2668C26.4406 30.8324 17.6345 27.0295 6.39862 25.5506C5.95819 25.4927 5.6262 25.1217 5.6262 24.6877V17.765C5.6262 17.331 5.95829 16.96 6.39862 16.902C17.6345 15.4232 26.4406 11.6203 29.4613 10.186V12.2246C29.4613 12.6482 29.8047 12.9918 30.2285 12.9918C30.6522 12.9918 30.9958 12.6483 30.9958 12.2246V8.9562C30.9958 8.95524 30.9958 8.95429 30.9958 8.95333V8.95084C30.9958 8.47137 31.3858 8.08128 31.8653 8.08128H34.3204C34.7999 8.08128 35.1899 8.47137 35.1899 8.95084V33.502Z" fill="#D3D3D3"/>
<path d="M48.2322 20.4609H40.0485C39.6248 20.4609 39.2812 20.8044 39.2812 21.2282C39.2812 21.652 39.6247 21.9954 40.0485 21.9954H48.2322C48.6559 21.9954 48.9994 21.652 48.9994 21.2282C48.9994 20.8044 48.6559 20.4609 48.2322 20.4609Z" fill="#D3D3D3"/>
<path d="M44.9592 14.1589C45.0601 14.1589 45.1626 14.1388 45.261 14.0967L46.0795 13.746C46.4689 13.5791 46.6494 13.128 46.4824 12.7386C46.3155 12.3491 45.8645 12.1688 45.475 12.3357L44.6566 12.6864C44.2672 12.8533 44.0867 13.3044 44.2537 13.6938C44.3784 13.9847 44.6616 14.1589 44.9592 14.1589Z" fill="#D3D3D3"/>
<path d="M40.049 16.2667C40.1499 16.2667 40.2524 16.2466 40.3509 16.2045L42.806 15.1522C43.1954 14.9853 43.3759 14.5342 43.2089 14.1448C43.042 13.7554 42.5909 13.575 42.2015 13.7419L39.7464 14.7942C39.357 14.9611 39.1765 15.4121 39.3435 15.8015C39.4682 16.0924 39.7515 16.2667 40.049 16.2667Z" fill="#D3D3D3"/>
<path d="M46.0778 28.7031L45.2571 28.3514C44.8677 28.1843 44.4166 28.3649 44.2497 28.7543C44.0828 29.1437 44.2632 29.5947 44.6526 29.7617L45.4734 30.1134C45.5719 30.1556 45.6744 30.1756 45.7752 30.1756C46.0729 30.1756 46.3561 30.0013 46.4808 29.7104C46.6478 29.321 46.4675 28.87 46.0778 28.7031Z" fill="#D3D3D3"/>
<path d="M42.8048 27.3014L40.3509 26.2497C39.9614 26.0829 39.5103 26.2632 39.3435 26.6526C39.1766 27.0421 39.357 27.4931 39.7464 27.66L42.2003 28.7117C42.2988 28.7539 42.4013 28.7739 42.5022 28.7739C42.7998 28.7739 43.083 28.5996 43.2077 28.3087C43.3747 27.9193 43.1942 27.4683 42.8048 27.3014Z" fill="#D3D3D3"/>
</g>
<defs>
<clipPath id="clip0_2613_1196">
<rect width="49" height="49" fill="white"/>
</clipPath>
</defs>
</svg>
