<svg width="57" height="43" viewBox="0 0 57 43" fill="none" xmlns="http://www.w3.org/2000/svg">
<g clip-path="url(#clip0_2613_1145)">
<path d="M0.664062 41.6869C0.664062 26.5942 12.899 14.3594 27.9916 14.3594C43.0842 14.3594 55.3192 26.5942 55.3192 41.6869H0.664062Z" fill="white"/>
<path d="M28.0464 20.0273H27.9909C27.3488 20.0273 26.8281 20.5479 26.8281 21.1902C26.8281 21.8324 27.3488 22.353 27.9909 22.353H28.0464C28.6885 22.353 29.2092 21.8324 29.2092 21.1902C29.2093 20.5479 28.6886 20.0273 28.0464 20.0273Z" fill="#D3D3D3"/>
<path d="M18.73 40.5234H18.6745C18.0323 40.5234 17.5117 41.0441 17.5117 41.6863C17.5117 42.3284 18.0323 42.8491 18.6745 42.8491H18.73C19.3721 42.8491 19.8928 42.3284 19.8928 41.6863C19.8928 41.0441 19.3721 40.5234 18.73 40.5234Z" fill="#D3D3D3"/>
<path d="M37.3355 40.5234H37.28C36.6379 40.5234 36.1172 41.0441 36.1172 41.6863C36.1172 42.3284 36.6379 42.8491 37.28 42.8491H37.3355C37.9776 42.8491 38.4983 42.3284 38.4983 41.6863C38.4983 41.0441 37.9776 40.5234 37.3355 40.5234Z" fill="#D3D3D3"/>
<path d="M56.4821 41.4635C56.4249 33.9366 53.4688 26.8685 48.1401 21.54C42.759 16.1589 35.6044 13.1953 27.9943 13.1953C20.3841 13.1953 13.2296 16.1588 7.8486 21.5399C2.46734 26.9209 -0.496094 34.0756 -0.496094 41.6857C-0.496094 42.3278 0.0244755 42.8485 0.666726 42.8485H14.9126C15.5548 42.8485 16.0754 42.3278 16.0754 41.6857C16.0754 41.0435 15.5548 40.5229 14.9126 40.5229H12.775C12.814 38.9925 12.9302 37.4864 13.1203 36.0168H21.4838C21.407 37.862 21.3673 39.7589 21.3673 41.6858C21.3673 42.3279 21.8878 42.8486 22.5301 42.8486C23.1722 42.8486 23.6929 42.3279 23.6929 41.6858C23.6929 39.7588 23.7334 37.861 23.8115 36.0168H32.1768C32.255 37.8609 32.2954 39.7587 32.2954 41.6858C32.2954 42.3279 32.816 42.8486 33.4582 42.8486C34.1004 42.8486 34.6211 42.3279 34.6211 41.6858C34.6211 39.7589 34.5813 37.862 34.5044 36.0168H42.8679C43.0579 37.4864 43.1741 38.9925 43.2132 40.5229H41.0946C40.4524 40.5229 39.9317 41.0435 39.9317 41.6857C39.9317 42.3278 40.4524 42.8485 41.0946 42.8485H55.3404C55.9826 42.8485 56.5032 42.3278 56.5032 41.6857C56.5038 41.6096 56.496 41.5354 56.4821 41.4635ZM52.9082 33.6909H44.8627C44.587 32.1398 44.2313 30.633 43.7985 29.1848H50.9743C51.7537 30.6118 52.4027 32.1194 52.9082 33.6909ZM49.5401 26.859H43.0178C42.42 25.261 41.7223 23.7515 40.929 22.3529H45.6062C47.082 23.6984 48.4025 25.211 49.5401 26.859ZM17.7746 22.3529H22.9476C22.675 23.7454 22.4351 25.2548 22.2301 26.859H15.4648C16.0271 25.4736 16.6719 24.1677 17.3964 22.9606C17.5208 22.7534 17.6471 22.5519 17.7746 22.3529ZM32.5278 20.0272C32.1323 18.446 31.6958 17.1457 31.2169 16.1177C33.0996 16.8239 34.8876 18.147 36.4972 20.0272H32.5278ZM24.7718 16.1177C24.2926 17.1457 23.8563 18.446 23.4609 20.0272H19.4916C21.1012 18.1472 22.8892 16.8239 24.7718 16.1177ZM25.2054 22.9237C26.4821 16.312 27.8911 15.5667 27.9943 15.5227C28.0977 15.5667 29.5064 16.3119 30.7832 22.9237C31.0193 24.1464 31.2295 25.4644 31.4128 26.859H24.5755C24.759 25.4645 24.9692 24.1465 25.2054 22.9237ZM33.041 22.3529H38.214C38.3414 22.5519 38.4679 22.7534 38.5921 22.9606C39.3164 24.1678 39.9613 25.4737 40.5238 26.859H33.7585C33.5534 25.2547 33.3135 23.7454 33.041 22.3529ZM42.6585 20.0272H39.4462C38.6523 18.9188 37.8055 17.9369 36.9146 17.0878C38.9597 17.8317 40.8865 18.8236 42.6585 20.0272ZM16.5423 20.0272H13.3301C15.1021 18.8236 17.0288 17.8317 19.0738 17.0878C18.1831 17.9369 17.3363 18.9188 16.5423 20.0272ZM10.3822 22.3529H15.0594C14.2661 23.7515 13.5683 25.261 12.9707 26.859H6.44843C7.58609 25.211 8.90655 23.6984 10.3822 22.3529ZM5.0143 29.1848H12.1902C11.7573 30.633 11.4015 32.1398 11.126 33.6909H3.08043C3.58597 32.1194 4.2349 30.6118 5.0143 29.1848ZM10.4489 40.5228H1.85682C1.92451 38.9826 2.12612 37.477 2.44998 36.0166H10.7771C10.5962 37.4904 10.4861 38.9961 10.4489 40.5228ZM13.4886 33.6909C13.7817 32.1317 14.1602 30.6239 14.6218 29.1848H21.9639C21.8167 30.6308 21.6955 32.1375 21.6017 33.6909H13.4886ZM23.9324 33.6909C24.0281 32.135 24.1516 30.6271 24.3021 29.1848H31.6865C31.837 30.6273 31.9604 32.135 32.0562 33.6909H23.9324ZM34.3867 33.6909C34.293 32.1375 34.1719 30.6308 34.0246 29.1848H41.3667C41.8283 30.6239 42.2067 32.1317 42.4999 33.6909H34.3867ZM45.2115 36.0166H53.5386C53.8624 37.477 54.064 38.9826 54.1317 40.5228H45.5397C45.5026 38.9961 45.3924 37.4904 45.2115 36.0166Z" fill="#0A0000"/>
</g>
<defs>
<clipPath id="clip0_2613_1145">
<rect width="57" height="43" fill="white"/>
</clipPath>
</defs>
</svg>
